STARTFONT 2.1
FONT -FontForge-Fontdiner Swanky-Book-R-Normal--10-100-72-72-P-63-ISO10646-1
SIZE 10 72 72
FONTBOUNDINGBOX 15 15 -3 -5
COMMENT "Generated by fontforge, http://fontforge.sourceforge.net"
COMMENT "Copyright (c) 2010 by Font Diner, Inc. All rights reserved."
STARTPROPERTIES 39
FOUNDRY "FontForge"
FAMILY_NAME "Fontdiner Swanky"
WEIGHT_NAME "Book"
SLANT "R"
SETWIDTH_NAME "Normal"
ADD_STYLE_NAME ""
PIXEL_SIZE 10
POINT_SIZE 100
RESOLUTION_X 72
RESOLUTION_Y 72
SPACING "P"
AVERAGE_WIDTH 63
CHARSET_REGISTRY "ISO10646"
CHARSET_ENCODING "1"
FONTNAME_REGISTRY ""
CHARSET_COLLECTIONS "ISO10646-1"
FONT_NAME "FontdinerSwanky-Regular"
FACE_NAME "Fontdiner Swanky Regular"
COPYRIGHT "Copyright (c) 2010 by Font Diner, Inc. All rights reserved."
FONT_VERSION "1.001"
FONT_ASCENT 8
FONT_DESCENT 2
UNDERLINE_POSITION -1
UNDERLINE_THICKNESS 1
X_HEIGHT 5
CAP_HEIGHT 5
RAW_ASCENT 799
RAW_DESCENT 200
NORM_SPACE 3
RELATIVE_WEIGHT 40
RELATIVE_SETWIDTH 50
SUPERSCRIPT_X 0
SUPERSCRIPT_Y 4
SUPERSCRIPT_SIZE 6
SUBSCRIPT_X 0
SUBSCRIPT_Y 1
SUBSCRIPT_SIZE 6
AVG_LOWERCASE_WIDTH 63
AVG_UPPERCASE_WIDTH 76
ENDPROPERTIES
CHARS 231
STARTCHAR space
ENCODING 32
SWIDTH 320 0
DWIDTH 3 0
BBX 1 1 0 0
BITMAP
00
ENDCHAR
STARTCHAR exclam
ENCODING 33
SWIDTH 305 0
DWIDTH 3 0
BBX 3 8 0 0
BITMAP
60
60
60
40
40
40
00
C0
ENDCHAR
STARTCHAR quotedbl
ENCODING 34
SWIDTH 369 0
DWIDTH 4 0
BBX 4 3 0 4
BITMAP
F0
E0
A0
ENDCHAR
STARTCHAR numbersign
ENCODING 35
SWIDTH 702 0
DWIDTH 7 0
BBX 7 7 0 0
BITMAP
24
E8
FE
28
FE
68
48
ENDCHAR
STARTCHAR dollar
ENCODING 36
SWIDTH 545 0
DWIDTH 5 0
BBX 5 8 0 -1
BITMAP
20
78
C8
F8
B8
88
F8
20
ENDCHAR
STARTCHAR percent
ENCODING 37
SWIDTH 657 0
DWIDTH 7 0
BBX 7 8 0 0
BITMAP
0C
E8
E8
10
10
34
2A
6E
ENDCHAR
STARTCHAR ampersand
ENCODING 38
SWIDTH 668 0
DWIDTH 7 0
BBX 8 8 0 -1
BITMAP
78
48
70
74
DC
CF
7C
08
ENDCHAR
STARTCHAR quotesingle
ENCODING 39
SWIDTH 177 0
DWIDTH 2 0
BBX 2 3 0 4
BITMAP
C0
C0
80
ENDCHAR
STARTCHAR parenleft
ENCODING 40
SWIDTH 384 0
DWIDTH 4 0
BBX 4 9 0 -1
BITMAP
30
60
40
40
C0
40
40
60
30
ENDCHAR
STARTCHAR parenright
ENCODING 41
SWIDTH 375 0
DWIDTH 4 0
BBX 3 9 0 -1
BITMAP
C0
60
20
20
20
20
20
60
C0
ENDCHAR
STARTCHAR asterisk
ENCODING 42
SWIDTH 640 0
DWIDTH 6 0
BBX 6 6 0 0
BITMAP
68
38
FC
B0
78
50
ENDCHAR
STARTCHAR plus
ENCODING 43
SWIDTH 607 0
DWIDTH 6 0
BBX 6 6 0 0
BITMAP
30
30
FC
30
30
30
ENDCHAR
STARTCHAR comma
ENCODING 44
SWIDTH 226 0
DWIDTH 2 0
BBX 2 3 0 -2
BITMAP
C0
C0
C0
ENDCHAR
STARTCHAR hyphen
ENCODING 45
SWIDTH 549 0
DWIDTH 6 0
BBX 4 1 1 3
BITMAP
F0
ENDCHAR
STARTCHAR period
ENCODING 46
SWIDTH 226 0
DWIDTH 2 0
BBX 2 2 0 -1
BITMAP
C0
C0
ENDCHAR
STARTCHAR slash
ENCODING 47
SWIDTH 600 0
DWIDTH 6 0
BBX 6 10 0 -1
BITMAP
08
0C
18
18
30
30
60
40
C0
80
ENDCHAR
STARTCHAR zero
ENCODING 48
SWIDTH 740 0
DWIDTH 7 0
BBX 7 6 0 0
BITMAP
7C
C6
C6
C6
46
3C
ENDCHAR
STARTCHAR one
ENCODING 49
SWIDTH 503 0
DWIDTH 5 0
BBX 7 7 -1 0
BITMAP
F8
18
18
18
18
18
7E
ENDCHAR
STARTCHAR two
ENCODING 50
SWIDTH 638 0
DWIDTH 6 0
BBX 6 8 0 0
BITMAP
80
B8
4C
4C
8C
34
44
FC
ENDCHAR
STARTCHAR three
ENCODING 51
SWIDTH 620 0
DWIDTH 6 0
BBX 6 9 0 -1
BITMAP
80
F8
CC
8C
38
8C
8C
F8
80
ENDCHAR
STARTCHAR four
ENCODING 52
SWIDTH 606 0
DWIDTH 6 0
BBX 7 9 -1 -1
BITMAP
04
04
0C
1C
2E
7E
8A
0A
3E
ENDCHAR
STARTCHAR five
ENCODING 53
SWIDTH 610 0
DWIDTH 6 0
BBX 6 7 0 0
BITMAP
FC
C4
F4
58
0C
8C
F8
ENDCHAR
STARTCHAR six
ENCODING 54
SWIDTH 619 0
DWIDTH 6 0
BBX 6 9 0 -1
BITMAP
04
38
6C
D4
EC
C4
C4
4C
30
ENDCHAR
STARTCHAR seven
ENCODING 55
SWIDTH 598 0
DWIDTH 6 0
BBX 7 8 0 -1
BITMAP
FE
4C
4C
18
18
10
30
4C
ENDCHAR
STARTCHAR eight
ENCODING 56
SWIDTH 642 0
DWIDTH 6 0
BBX 7 8 0 -1
BITMAP
78
4C
CC
7C
EC
C6
CC
78
ENDCHAR
STARTCHAR nine
ENCODING 57
SWIDTH 610 0
DWIDTH 6 0
BBX 6 8 0 -1
BITMAP
78
CC
CC
CC
7C
8C
78
40
ENDCHAR
STARTCHAR colon
ENCODING 58
SWIDTH 223 0
DWIDTH 2 0
BBX 2 4 0 -1
BITMAP
C0
00
C0
C0
ENDCHAR
STARTCHAR semicolon
ENCODING 59
SWIDTH 228 0
DWIDTH 2 0
BBX 2 5 0 -2
BITMAP
C0
00
C0
C0
C0
ENDCHAR
STARTCHAR less
ENCODING 60
SWIDTH 563 0
DWIDTH 6 0
BBX 6 7 0 0
BITMAP
04
0C
38
E0
60
18
0C
ENDCHAR
STARTCHAR equal
ENCODING 61
SWIDTH 531 0
DWIDTH 5 0
BBX 5 4 0 1
BITMAP
E0
F8
08
F8
ENDCHAR
STARTCHAR greater
ENCODING 62
SWIDTH 576 0
DWIDTH 6 0
BBX 6 7 0 0
BITMAP
80
C0
70
1C
18
60
80
ENDCHAR
STARTCHAR question
ENCODING 63
SWIDTH 592 0
DWIDTH 6 0
BBX 6 9 0 0
BITMAP
80
F8
8C
8C
0C
78
60
00
C0
ENDCHAR
STARTCHAR at
ENCODING 64
SWIDTH 792 0
DWIDTH 8 0
BBX 8 7 0 0
BITMAP
1C
62
DD
A5
BD
FD
7E
ENDCHAR
STARTCHAR A
ENCODING 65
SWIDTH 788 0
DWIDTH 8 0
BBX 12 9 -2 -2
BITMAP
1C00
0600
0600
0B00
0900
1F80
1180
F8F0
01C0
ENDCHAR
STARTCHAR B
ENCODING 66
SWIDTH 774 0
DWIDTH 8 0
BBX 9 8 -1 -1
BITMAP
FC00
3300
3180
3700
3F00
3100
3300
FC00
ENDCHAR
STARTCHAR C
ENCODING 67
SWIDTH 766 0
DWIDTH 8 0
BBX 8 9 0 -1
BITMAP
01
3D
62
C2
C2
C0
62
76
19
ENDCHAR
STARTCHAR D
ENCODING 68
SWIDTH 833 0
DWIDTH 8 0
BBX 9 7 -1 0
BITMAP
FE00
1980
1980
1880
1080
1180
7F00
ENDCHAR
STARTCHAR E
ENCODING 69
SWIDTH 781 0
DWIDTH 8 0
BBX 8 7 -1 0
BITMAP
FF
13
15
14
1D
15
FF
ENDCHAR
STARTCHAR F
ENCODING 70
SWIDTH 731 0
DWIDTH 7 0
BBX 8 8 -1 -1
BITMAP
FF
31
35
1D
14
14
10
7C
ENDCHAR
STARTCHAR G
ENCODING 71
SWIDTH 828 0
DWIDTH 8 0
BBX 9 8 0 0
BITMAP
0100
3E00
6200
C200
D980
C600
6200
7D00
ENDCHAR
STARTCHAR H
ENCODING 72
SWIDTH 797 0
DWIDTH 8 0
BBX 10 8 -1 -1
BITMAP
8FC0
7B00
3300
3300
3F00
3300
33C0
FC00
ENDCHAR
STARTCHAR I
ENCODING 73
SWIDTH 445 0
DWIDTH 4 0
BBX 6 8 -1 -1
BITMAP
FC
30
10
10
10
10
10
7C
ENDCHAR
STARTCHAR J
ENCODING 74
SWIDTH 718 0
DWIDTH 7 0
BBX 9 8 -1 -1
BITMAP
3F80
0600
0600
0200
0200
F200
2200
3C00
ENDCHAR
STARTCHAR K
ENCODING 75
SWIDTH 934 0
DWIDTH 9 0
BBX 12 8 -1 -1
BITMAP
FFE0
3100
1600
1E00
1300
1180
7C80
03F0
ENDCHAR
STARTCHAR L
ENCODING 76
SWIDTH 712 0
DWIDTH 7 0
BBX 8 8 -1 0
BITMAP
FE
10
10
11
11
11
11
FF
ENDCHAR
STARTCHAR M
ENCODING 77
SWIDTH 1033 0
DWIDTH 10 0
BBX 12 7 -1 0
BITMAP
F8F0
39C0
1DC0
1EC0
16C0
16C0
FFF0
ENDCHAR
STARTCHAR N
ENCODING 78
SWIDTH 840 0
DWIDTH 8 0
BBX 11 8 -1 -1
BITMAP
FFE0
1900
1D00
1700
1300
1300
FF00
0080
ENDCHAR
STARTCHAR O
ENCODING 79
SWIDTH 808 0
DWIDTH 8 0
BBX 8 6 0 0
BITMAP
3E
63
C3
C3
62
3C
ENDCHAR
STARTCHAR P
ENCODING 80
SWIDTH 746 0
DWIDTH 7 0
BBX 9 6 -1 0
BITMAP
FF00
3180
3F00
3000
3000
FE00
ENDCHAR
STARTCHAR Q
ENCODING 81
SWIDTH 789 0
DWIDTH 8 0
BBX 9 9 0 -3
BITMAP
7E00
C200
C300
C300
6600
3C00
0C00
0F80
3000
ENDCHAR
STARTCHAR R
ENCODING 82
SWIDTH 826 0
DWIDTH 8 0
BBX 12 9 -1 -3
BITMAP
FF00
1180
1F00
1200
1300
7D80
83F0
0180
0200
ENDCHAR
STARTCHAR S
ENCODING 83
SWIDTH 661 0
DWIDTH 7 0
BBX 7 8 0 -1
BITMAP
32
CC
C4
F8
1C
86
7C
80
ENDCHAR
STARTCHAR T
ENCODING 84
SWIDTH 754 0
DWIDTH 8 0
BBX 7 7 0 0
BITMAP
FE
9A
9A
9A
18
10
7E
ENDCHAR
STARTCHAR U
ENCODING 85
SWIDTH 725 0
DWIDTH 7 0
BBX 9 7 -1 0
BITMAP
C780
3900
3100
3100
3100
3200
3E00
ENDCHAR
STARTCHAR V
ENCODING 86
SWIDTH 786 0
DWIDTH 8 0
BBX 10 8 -1 -1
BITMAP
3E00
F1C0
3100
1A00
1A00
0C00
0C00
0800
ENDCHAR
STARTCHAR W
ENCODING 87
SWIDTH 1026 0
DWIDTH 10 0
BBX 13 8 -1 -1
BITMAP
0D80
F278
3240
1740
1F40
1D80
0980
0880
ENDCHAR
STARTCHAR X
ENCODING 88
SWIDTH 860 0
DWIDTH 9 0
BBX 11 7 -1 -1
BITMAP
7FC0
1B00
0C00
0E00
1700
FB80
0460
ENDCHAR
STARTCHAR Y
ENCODING 89
SWIDTH 848 0
DWIDTH 8 0
BBX 10 8 -1 -1
BITMAP
8800
73C0
1900
0E00
0400
0400
0400
1F80
ENDCHAR
STARTCHAR Z
ENCODING 90
SWIDTH 685 0
DWIDTH 7 0
BBX 7 6 0 0
BITMAP
FE
8C
9A
32
72
FE
ENDCHAR
STARTCHAR bracketleft
ENCODING 91
SWIDTH 380 0
DWIDTH 4 0
BBX 4 9 1 -1
BITMAP
F0
80
80
80
80
80
80
80
E0
ENDCHAR
STARTCHAR backslash
ENCODING 92
SWIDTH 680 0
DWIDTH 7 0
BBX 7 10 0 -1
BITMAP
40
C0
60
30
30
18
18
0C
06
04
ENDCHAR
STARTCHAR bracketright
ENCODING 93
SWIDTH 371 0
DWIDTH 4 0
BBX 4 9 -1 -1
BITMAP
F0
10
10
10
10
10
10
10
70
ENDCHAR
STARTCHAR asciicircum
ENCODING 94
SWIDTH 671 0
DWIDTH 7 0
BBX 7 6 0 3
BITMAP
10
30
38
68
64
C2
ENDCHAR
STARTCHAR underscore
ENCODING 95
SWIDTH 840 0
DWIDTH 8 0
BBX 8 2 0 -1
BITMAP
FF
FF
ENDCHAR
STARTCHAR grave
ENCODING 96
SWIDTH 707 0
DWIDTH 7 0
BBX 2 2 3 6
BITMAP
C0
40
ENDCHAR
STARTCHAR a
ENCODING 97
SWIDTH 572 0
DWIDTH 6 0
BBX 6 6 0 0
BITMAP
30
48
C8
78
C8
7C
ENDCHAR
STARTCHAR b
ENCODING 98
SWIDTH 723 0
DWIDTH 7 0
BBX 8 10 -1 -2
BITMAP
10
F0
30
30
30
3E
33
33
3E
40
ENDCHAR
STARTCHAR c
ENCODING 99
SWIDTH 589 0
DWIDTH 6 0
BBX 6 6 0 -1
BITMAP
38
4C
C8
C4
68
30
ENDCHAR
STARTCHAR d
ENCODING 100
SWIDTH 713 0
DWIDTH 7 0
BBX 8 10 0 -2
BITMAP
1E
06
06
06
3E
44
C4
44
3C
07
ENDCHAR
STARTCHAR e
ENCODING 101
SWIDTH 593 0
DWIDTH 6 0
BBX 6 6 0 -1
BITMAP
30
68
CC
FC
68
30
ENDCHAR
STARTCHAR f
ENCODING 102
SWIDTH 507 0
DWIDTH 5 0
BBX 7 14 -1 -4
BITMAP
08
14
36
30
30
7C
10
10
10
18
18
58
D8
70
ENDCHAR
STARTCHAR g
ENCODING 103
SWIDTH 606 0
DWIDTH 6 0
BBX 7 11 0 -5
BITMAP
0E
7C
CC
CC
4C
78
70
4C
C4
C4
78
ENDCHAR
STARTCHAR h
ENCODING 104
SWIDTH 678 0
DWIDTH 7 0
BBX 9 10 -1 -1
BITMAP
1000
F000
3000
3000
3000
3E00
3300
3200
7A00
0780
ENDCHAR
STARTCHAR i
ENCODING 105
SWIDTH 393 0
DWIDTH 4 0
BBX 4 8 0 0
BITMAP
60
60
00
E0
20
20
20
F0
ENDCHAR
STARTCHAR j
ENCODING 106
SWIDTH 385 0
DWIDTH 4 0
BBX 4 10 -1 -3
BITMAP
30
20
70
10
10
10
10
10
D0
70
ENDCHAR
STARTCHAR k
ENCODING 107
SWIDTH 749 0
DWIDTH 7 0
BBX 10 9 -1 -1
BITMAP
F000
3C80
3300
3400
3C00
3400
3200
7B00
86C0
ENDCHAR
STARTCHAR l
ENCODING 108
SWIDTH 369 0
DWIDTH 4 0
BBX 5 10 -1 -1
BITMAP
F0
30
30
30
30
30
30
30
30
78
ENDCHAR
STARTCHAR m
ENCODING 109
SWIDTH 990 0
DWIDTH 10 0
BBX 12 4 -1 1
BITMAP
FFC0
3240
3240
7FF0
ENDCHAR
STARTCHAR n
ENCODING 110
SWIDTH 643 0
DWIDTH 6 0
BBX 8 4 -1 1
BITMAP
FE
32
32
7F
ENDCHAR
STARTCHAR o
ENCODING 111
SWIDTH 705 0
DWIDTH 7 0
BBX 7 5 0 0
BITMAP
38
C6
C6
C6
7C
ENDCHAR
STARTCHAR p
ENCODING 112
SWIDTH 723 0
DWIDTH 7 0
BBX 8 8 -1 -2
BITMAP
90
7E
33
31
33
3E
30
FC
ENDCHAR
STARTCHAR q
ENCODING 113
SWIDTH 682 0
DWIDTH 7 0
BBX 8 8 0 -2
BITMAP
0F
7C
CC
CC
4C
3C
0C
3F
ENDCHAR
STARTCHAR r
ENCODING 114
SWIDTH 595 0
DWIDTH 6 0
BBX 7 6 -1 0
BITMAP
F6
3E
10
10
10
7C
ENDCHAR
STARTCHAR s
ENCODING 115
SWIDTH 533 0
DWIDTH 5 0
BBX 5 6 0 0
BITMAP
78
C8
E8
B8
88
F8
ENDCHAR
STARTCHAR t
ENCODING 116
SWIDTH 422 0
DWIDTH 4 0
BBX 4 9 0 0
BITMAP
20
20
E0
50
40
40
50
50
70
ENDCHAR
STARTCHAR u
ENCODING 117
SWIDTH 614 0
DWIDTH 6 0
BBX 8 5 -1 0
BITMAP
EE
26
26
26
3F
ENDCHAR
STARTCHAR v
ENCODING 118
SWIDTH 639 0
DWIDTH 6 0
BBX 9 7 -1 -1
BITMAP
1800
EF80
3200
1400
1C00
0800
0800
ENDCHAR
STARTCHAR w
ENCODING 119
SWIDTH 805 0
DWIDTH 8 0
BBX 11 6 -1 0
BITMAP
9B60
6480
3500
1F00
1A00
1200
ENDCHAR
STARTCHAR x
ENCODING 120
SWIDTH 717 0
DWIDTH 7 0
BBX 9 6 -1 0
BITMAP
0C00
F780
1C00
0C00
1400
FF80
ENDCHAR
STARTCHAR y
ENCODING 121
SWIDTH 655 0
DWIDTH 7 0
BBX 7 10 -1 -5
BITMAP
EE
32
62
62
3E
06
06
66
2C
10
ENDCHAR
STARTCHAR z
ENCODING 122
SWIDTH 549 0
DWIDTH 6 0
BBX 6 5 0 0
BITMAP
FC
98
B4
68
F8
ENDCHAR
STARTCHAR braceleft
ENCODING 123
SWIDTH 708 0
DWIDTH 7 0
BBX 5 9 1 -1
BITMAP
78
20
20
20
E0
20
20
20
38
ENDCHAR
STARTCHAR bar
ENCODING 124
SWIDTH 304 0
DWIDTH 3 0
BBX 1 9 1 -1
BITMAP
80
80
80
80
80
80
80
80
80
ENDCHAR
STARTCHAR braceright
ENCODING 125
SWIDTH 517 0
DWIDTH 5 0
BBX 6 9 0 -1
BITMAP
F0
30
30
30
3C
30
30
30
F0
ENDCHAR
STARTCHAR asciitilde
ENCODING 126
SWIDTH 466 0
DWIDTH 5 0
BBX 5 2 0 2
BITMAP
F8
B8
ENDCHAR
STARTCHAR uni00A0
ENCODING 160
SWIDTH 320 0
DWIDTH 3 0
BBX 1 1 0 0
BITMAP
00
ENDCHAR
STARTCHAR exclamdown
ENCODING 161
SWIDTH 305 0
DWIDTH 3 0
BBX 3 8 0 -3
BITMAP
60
40
40
40
40
40
C0
C0
ENDCHAR
STARTCHAR cent
ENCODING 162
SWIDTH 417 0
DWIDTH 4 0
BBX 4 8 0 -1
BITMAP
20
60
90
80
90
F0
20
20
ENDCHAR
STARTCHAR sterling
ENCODING 163
SWIDTH 658 0
DWIDTH 7 0
BBX 7 7 0 0
BITMAP
12
6C
64
FC
FA
3A
7E
ENDCHAR
STARTCHAR currency
ENCODING 164
SWIDTH 358 0
DWIDTH 4 0
BBX 4 3 0 2
BITMAP
F0
A0
F0
ENDCHAR
STARTCHAR yen
ENCODING 165
SWIDTH 796 0
DWIDTH 8 0
BBX 9 7 -1 0
BITMAP
9000
6780
1200
0C00
1E00
1E00
3F00
ENDCHAR
STARTCHAR brokenbar
ENCODING 166
SWIDTH 304 0
DWIDTH 3 0
BBX 1 9 1 -1
BITMAP
80
80
80
00
00
80
80
80
80
ENDCHAR
STARTCHAR section
ENCODING 167
SWIDTH 646 0
DWIDTH 6 0
BBX 6 12 0 -3
BITMAP
34
4C
C4
70
7C
CC
EC
78
9C
44
7C
80
ENDCHAR
STARTCHAR dieresis
ENCODING 168
SWIDTH 708 0
DWIDTH 7 0
BBX 3 1 2 8
BITMAP
A0
ENDCHAR
STARTCHAR copyright
ENCODING 169
SWIDTH 700 0
DWIDTH 7 0
BBX 7 7 0 0
BITMAP
38
54
AA
A2
BA
44
38
ENDCHAR
STARTCHAR ordfeminine
ENCODING 170
SWIDTH 399 0
DWIDTH 4 0
BBX 4 4 0 4
BITMAP
E0
A0
E0
F0
ENDCHAR
STARTCHAR guillemotleft
ENCODING 171
SWIDTH 424 0
DWIDTH 4 0
BBX 4 5 0 0
BITMAP
50
50
A0
50
50
ENDCHAR
STARTCHAR logicalnot
ENCODING 172
SWIDTH 541 0
DWIDTH 5 0
BBX 6 5 0 1
BITMAP
84
88
F8
88
9C
ENDCHAR
STARTCHAR sfthyphen
ENCODING 173
SWIDTH 530 0
DWIDTH 5 0
BBX 5 1 0 3
BITMAP
F8
ENDCHAR
STARTCHAR registered
ENCODING 174
SWIDTH 700 0
DWIDTH 7 0
BBX 7 7 0 0
BITMAP
38
44
BA
92
9A
64
38
ENDCHAR
STARTCHAR macron
ENCODING 175
SWIDTH 705 0
DWIDTH 7 0
BBX 2 2 3 7
BITMAP
C0
C0
ENDCHAR
STARTCHAR degree
ENCODING 176
SWIDTH 364 0
DWIDTH 4 0
BBX 3 3 0 4
BITMAP
60
E0
40
ENDCHAR
STARTCHAR plusminus
ENCODING 177
SWIDTH 607 0
DWIDTH 6 0
BBX 6 6 0 0
BITMAP
30
FC
F0
30
F8
FC
ENDCHAR
STARTCHAR twosuperior
ENCODING 178
SWIDTH 440 0
DWIDTH 4 0
BBX 4 5 0 4
BITMAP
E0
50
90
70
F0
ENDCHAR
STARTCHAR threesuperior
ENCODING 179
SWIDTH 442 0
DWIDTH 4 0
BBX 4 6 0 3
BITMAP
A0
D0
90
B0
D0
A0
ENDCHAR
STARTCHAR acute
ENCODING 180
SWIDTH 694 0
DWIDTH 7 0
BBX 2 3 3 7
BITMAP
80
C0
80
ENDCHAR
STARTCHAR mu
ENCODING 181
SWIDTH 1000 0
DWIDTH 10 0
BBX 8 8 0 -3
BITMAP
EE
26
26
24
3F
20
20
20
ENDCHAR
STARTCHAR paragraph
ENCODING 182
SWIDTH 782 0
DWIDTH 8 0
BBX 8 7 0 0
BITMAP
0F
F4
94
7C
14
14
7F
ENDCHAR
STARTCHAR periodcentered
ENCODING 183
SWIDTH 226 0
DWIDTH 2 0
BBX 2 2 0 3
BITMAP
40
C0
ENDCHAR
STARTCHAR cedilla
ENCODING 184
SWIDTH 780 0
DWIDTH 8 0
BBX 2 3 3 -2
BITMAP
80
40
C0
ENDCHAR
STARTCHAR onesuperior
ENCODING 185
SWIDTH 390 0
DWIDTH 4 0
BBX 4 6 0 3
BITMAP
20
E0
20
20
20
D0
ENDCHAR
STARTCHAR ordmasculine
ENCODING 186
SWIDTH 449 0
DWIDTH 5 0
BBX 5 4 0 4
BITMAP
60
90
98
70
ENDCHAR
STARTCHAR guillemotright
ENCODING 187
SWIDTH 415 0
DWIDTH 4 0
BBX 4 5 0 0
BITMAP
A0
E0
50
70
A0
ENDCHAR
STARTCHAR onequarter
ENCODING 188
SWIDTH 918 0
DWIDTH 9 0
BBX 9 10 0 -1
BITMAP
2100
E300
2200
2600
2500
D900
0B80
1780
3980
2780
ENDCHAR
STARTCHAR onehalf
ENCODING 189
SWIDTH 1007 0
DWIDTH 10 0
BBX 10 10 0 -1
BITMAP
2100
E300
2200
2600
2400
DB80
0A40
12C0
3340
23C0
ENDCHAR
STARTCHAR threequarters
ENCODING 190
SWIDTH 936 0
DWIDTH 9 0
BBX 9 10 0 -1
BITMAP
A180
D100
9300
B600
D500
AD00
0B80
1780
1180
2780
ENDCHAR
STARTCHAR questiondown
ENCODING 191
SWIDTH 568 0
DWIDTH 6 0
BBX 6 9 0 -3
BITMAP
08
1C
10
18
F0
C0
C4
68
18
ENDCHAR
STARTCHAR Agrave
ENCODING 192
SWIDTH 788 0
DWIDTH 8 0
BBX 12 12 -2 -2
BITMAP
0400
0600
0000
1C00
0600
0600
0B00
0900
1F80
1180
F8F0
01C0
ENDCHAR
STARTCHAR Aacute
ENCODING 193
SWIDTH 788 0
DWIDTH 8 0
BBX 12 12 -2 -2
BITMAP
0200
0600
0400
1C00
0600
0600
0B00
0900
1F80
1180
F8F0
01C0
ENDCHAR
STARTCHAR Acircumflex
ENCODING 194
SWIDTH 788 0
DWIDTH 8 0
BBX 12 11 -2 -2
BITMAP
0600
0F00
1C00
0600
0600
0B00
0900
1F80
1180
F8F0
01C0
ENDCHAR
STARTCHAR Atilde
ENCODING 195
SWIDTH 788 0
DWIDTH 8 0
BBX 12 11 -2 -2
BITMAP
0500
0B00
1C00
0600
0600
0B00
0900
1F80
1180
F8F0
01C0
ENDCHAR
STARTCHAR Adieresis
ENCODING 196
SWIDTH 788 0
DWIDTH 8 0
BBX 12 10 -2 -2
BITMAP
0E00
1C00
0600
0600
0B00
0900
1F80
1180
F8F0
01C0
ENDCHAR
STARTCHAR Aring
ENCODING 197
SWIDTH 788 0
DWIDTH 8 0
BBX 12 10 -2 -2
BITMAP
0600
1C00
0600
0600
0B00
0900
1F80
1180
F8F0
01C0
ENDCHAR
STARTCHAR AE
ENCODING 198
SWIDTH 1019 0
DWIDTH 10 0
BBX 13 8 -3 -1
BITMAP
0FF8
03A8
05A8
05E0
0FE8
11A8
33F8
DC00
ENDCHAR
STARTCHAR Ccedilla
ENCODING 199
SWIDTH 766 0
DWIDTH 8 0
BBX 8 11 0 -3
BITMAP
01
3D
62
C2
C2
C0
62
76
19
18
18
ENDCHAR
STARTCHAR Egrave
ENCODING 200
SWIDTH 781 0
DWIDTH 8 0
BBX 8 10 -1 0
BITMAP
08
0C
00
FF
13
15
14
1D
15
FF
ENDCHAR
STARTCHAR Eacute
ENCODING 201
SWIDTH 781 0
DWIDTH 8 0
BBX 8 10 -1 0
BITMAP
04
04
0C
FF
13
15
14
1D
15
FF
ENDCHAR
STARTCHAR Ecircumflex
ENCODING 202
SWIDTH 781 0
DWIDTH 8 0
BBX 8 10 -1 0
BITMAP
0C
1E
00
FF
13
15
14
1D
15
FF
ENDCHAR
STARTCHAR Edieresis
ENCODING 203
SWIDTH 781 0
DWIDTH 8 0
BBX 8 9 -1 0
BITMAP
1C
00
FF
13
15
14
1D
15
FF
ENDCHAR
STARTCHAR Igrave
ENCODING 204
SWIDTH 445 0
DWIDTH 4 0
BBX 6 11 -1 -1
BITMAP
30
10
00
FC
30
10
10
10
10
10
7C
ENDCHAR
STARTCHAR Iacute
ENCODING 205
SWIDTH 445 0
DWIDTH 4 0
BBX 6 11 -1 -1
BITMAP
18
10
10
FC
30
10
10
10
10
10
7C
ENDCHAR
STARTCHAR Icircumflex
ENCODING 206
SWIDTH 445 0
DWIDTH 4 0
BBX 6 11 -1 -1
BITMAP
10
28
00
FC
30
10
10
10
10
10
7C
ENDCHAR
STARTCHAR Idieresis
ENCODING 207
SWIDTH 445 0
DWIDTH 4 0
BBX 6 9 -1 -1
BITMAP
28
FC
30
10
10
10
10
10
7C
ENDCHAR
STARTCHAR Eth
ENCODING 208
SWIDTH 1000 0
DWIDTH 10 0
BBX 10 7 0 0
BITMAP
FE00
1980
1880
7CC0
18C0
1980
7F00
ENDCHAR
STARTCHAR Ntilde
ENCODING 209
SWIDTH 840 0
DWIDTH 8 0
BBX 11 11 -1 -1
BITMAP
0A00
1600
8460
7B80
1900
1D00
1700
1300
1300
FF00
0080
ENDCHAR
STARTCHAR Ograve
ENCODING 210
SWIDTH 808 0
DWIDTH 8 0
BBX 8 9 0 0
BITMAP
18
08
00
3E
63
C3
C3
62
3C
ENDCHAR
STARTCHAR Oacute
ENCODING 211
SWIDTH 808 0
DWIDTH 8 0
BBX 8 9 0 0
BITMAP
08
08
18
3E
63
C3
C3
62
3C
ENDCHAR
STARTCHAR Ocircumflex
ENCODING 212
SWIDTH 808 0
DWIDTH 8 0
BBX 8 9 0 0
BITMAP
18
3C
00
3E
63
C3
C3
62
3C
ENDCHAR
STARTCHAR Otilde
ENCODING 213
SWIDTH 808 0
DWIDTH 8 0
BBX 8 9 0 0
BITMAP
14
2C
00
3E
63
C3
C3
62
3C
ENDCHAR
STARTCHAR Odieresis
ENCODING 214
SWIDTH 808 0
DWIDTH 8 0
BBX 8 8 0 0
BITMAP
1C
00
3E
63
C3
C3
62
3C
ENDCHAR
STARTCHAR multiply
ENCODING 215
SWIDTH 556 0
DWIDTH 6 0
BBX 5 5 0 1
BITMAP
48
F8
30
78
C8
ENDCHAR
STARTCHAR Oslash
ENCODING 216
SWIDTH 808 0
DWIDTH 8 0
BBX 8 8 0 -1
BITMAP
06
3E
6F
CB
DB
72
3C
60
ENDCHAR
STARTCHAR Ugrave
ENCODING 217
SWIDTH 725 0
DWIDTH 7 0
BBX 9 9 -1 0
BITMAP
0800
0C00
C780
3900
3100
3100
3100
3200
3E00
ENDCHAR
STARTCHAR Uacute
ENCODING 218
SWIDTH 725 0
DWIDTH 7 0
BBX 9 10 -1 0
BITMAP
0800
0C00
0800
C780
3900
3100
3100
3100
3200
3E00
ENDCHAR
STARTCHAR Ucircumflex
ENCODING 219
SWIDTH 725 0
DWIDTH 7 0
BBX 9 9 -1 0
BITMAP
0C00
1C00
C780
3900
3100
3100
3100
3200
3E00
ENDCHAR
STARTCHAR Udieresis
ENCODING 220
SWIDTH 725 0
DWIDTH 7 0
BBX 9 8 -1 0
BITMAP
1C00
C780
3900
3100
3100
3100
3200
3E00
ENDCHAR
STARTCHAR Yacute
ENCODING 221
SWIDTH 848 0
DWIDTH 8 0
BBX 10 11 -1 -1
BITMAP
0200
0600
0400
8800
73C0
1900
0E00
0400
0400
0400
1F80
ENDCHAR
STARTCHAR Thorn
ENCODING 222
SWIDTH 745 0
DWIDTH 7 0
BBX 9 6 -1 0
BITMAP
FC00
3F00
3180
3300
3C00
FE00
ENDCHAR
STARTCHAR germandbls
ENCODING 223
SWIDTH 986 0
DWIDTH 10 0
BBX 11 13 -1 -4
BITMAP
1E00
1100
1100
3100
7300
1200
1300
13C0
1AE0
1B60
5C80
D800
7000
ENDCHAR
STARTCHAR agrave
ENCODING 224
SWIDTH 572 0
DWIDTH 6 0
BBX 6 8 0 0
BITMAP
10
18
30
48
C8
78
C8
7C
ENDCHAR
STARTCHAR aacute
ENCODING 225
SWIDTH 572 0
DWIDTH 6 0
BBX 6 9 0 0
BITMAP
18
10
10
30
48
C8
78
C8
7C
ENDCHAR
STARTCHAR acircumflex
ENCODING 226
SWIDTH 572 0
DWIDTH 6 0
BBX 6 9 0 0
BITMAP
10
28
00
30
48
C8
78
C8
7C
ENDCHAR
STARTCHAR atilde
ENCODING 227
SWIDTH 572 0
DWIDTH 6 0
BBX 6 8 0 0
BITMAP
38
38
30
48
C8
78
C8
7C
ENDCHAR
STARTCHAR adieresis
ENCODING 228
SWIDTH 572 0
DWIDTH 6 0
BBX 6 7 0 0
BITMAP
38
30
48
C8
78
C8
7C
ENDCHAR
STARTCHAR aring
ENCODING 229
SWIDTH 572 0
DWIDTH 6 0
BBX 6 7 0 0
BITMAP
38
30
48
C8
78
C8
7C
ENDCHAR
STARTCHAR ae
ENCODING 230
SWIDTH 1022 0
DWIDTH 10 0
BBX 10 6 0 0
BITMAP
2000
DF80
CC40
FFC0
DEC0
7D00
ENDCHAR
STARTCHAR ccedilla
ENCODING 231
SWIDTH 589 0
DWIDTH 6 0
BBX 6 8 0 -3
BITMAP
38
4C
C8
C4
68
30
30
30
ENDCHAR
STARTCHAR egrave
ENCODING 232
SWIDTH 593 0
DWIDTH 6 0
BBX 6 9 0 -1
BITMAP
10
18
00
30
68
CC
FC
68
30
ENDCHAR
STARTCHAR eacute
ENCODING 233
SWIDTH 593 0
DWIDTH 6 0
BBX 6 9 0 -1
BITMAP
18
10
10
30
68
CC
FC
68
30
ENDCHAR
STARTCHAR ecircumflex
ENCODING 234
SWIDTH 593 0
DWIDTH 6 0
BBX 6 9 0 -1
BITMAP
10
28
00
30
68
CC
FC
68
30
ENDCHAR
STARTCHAR edieresis
ENCODING 235
SWIDTH 593 0
DWIDTH 6 0
BBX 6 7 0 -1
BITMAP
28
30
68
CC
FC
68
30
ENDCHAR
STARTCHAR igrave
ENCODING 236
SWIDTH 393 0
DWIDTH 4 0
BBX 4 8 0 0
BITMAP
60
20
00
E0
20
20
20
F0
ENDCHAR
STARTCHAR iacute
ENCODING 237
SWIDTH 393 0
DWIDTH 4 0
BBX 4 9 0 0
BITMAP
30
20
20
00
E0
20
20
20
F0
ENDCHAR
STARTCHAR icircumflex
ENCODING 238
SWIDTH 393 0
DWIDTH 4 0
BBX 4 8 0 0
BITMAP
20
50
00
E0
20
20
20
F0
ENDCHAR
STARTCHAR idieresis
ENCODING 239
SWIDTH 393 0
DWIDTH 4 0
BBX 4 7 0 0
BITMAP
50
00
E0
20
20
20
F0
ENDCHAR
STARTCHAR eth
ENCODING 240
SWIDTH 672 0
DWIDTH 7 0
BBX 7 9 0 -1
BITMAP
64
18
38
2C
7C
C6
C6
C4
78
ENDCHAR
STARTCHAR ntilde
ENCODING 241
SWIDTH 643 0
DWIDTH 6 0
BBX 8 7 -1 1
BITMAP
1C
1C
00
FE
32
32
7F
ENDCHAR
STARTCHAR ograve
ENCODING 242
SWIDTH 705 0
DWIDTH 7 0
BBX 7 8 0 0
BITMAP
10
18
00
38
C6
C6
C6
7C
ENDCHAR
STARTCHAR oacute
ENCODING 243
SWIDTH 705 0
DWIDTH 7 0
BBX 7 8 0 0
BITMAP
10
18
10
38
C6
C6
C6
7C
ENDCHAR
STARTCHAR ocircumflex
ENCODING 244
SWIDTH 705 0
DWIDTH 7 0
BBX 7 8 0 0
BITMAP
10
28
00
38
C6
C6
C6
7C
ENDCHAR
STARTCHAR otilde
ENCODING 245
SWIDTH 705 0
DWIDTH 7 0
BBX 7 8 0 0
BITMAP
34
38
00
38
C6
C6
C6
7C
ENDCHAR
STARTCHAR odieresis
ENCODING 246
SWIDTH 705 0
DWIDTH 7 0
BBX 7 6 0 0
BITMAP
28
38
C6
C6
C6
7C
ENDCHAR
STARTCHAR divide
ENCODING 247
SWIDTH 504 0
DWIDTH 5 0
BBX 5 6 0 0
BITMAP
20
30
C0
F8
20
30
ENDCHAR
STARTCHAR oslash
ENCODING 248
SWIDTH 705 0
DWIDTH 7 0
BBX 7 7 0 -1
BITMAP
04
3C
CE
D6
F6
7C
60
ENDCHAR
STARTCHAR ugrave
ENCODING 249
SWIDTH 614 0
DWIDTH 6 0
BBX 8 8 -1 0
BITMAP
18
08
00
EE
26
26
26
3F
ENDCHAR
STARTCHAR uacute
ENCODING 250
SWIDTH 614 0
DWIDTH 6 0
BBX 8 8 -1 0
BITMAP
08
08
18
EE
26
26
26
3F
ENDCHAR
STARTCHAR ucircumflex
ENCODING 251
SWIDTH 614 0
DWIDTH 6 0
BBX 8 8 -1 0
BITMAP
18
3C
00
EE
26
26
26
3F
ENDCHAR
STARTCHAR udieresis
ENCODING 252
SWIDTH 614 0
DWIDTH 6 0
BBX 8 7 -1 0
BITMAP
1C
00
EE
26
26
26
3F
ENDCHAR
STARTCHAR yacute
ENCODING 253
SWIDTH 655 0
DWIDTH 7 0
BBX 7 14 -1 -5
BITMAP
08
08
18
80
6E
32
62
62
3E
06
06
66
2C
10
ENDCHAR
STARTCHAR thorn
ENCODING 254
SWIDTH 734 0
DWIDTH 7 0
BBX 8 11 -1 -4
BITMAP
F0
30
30
30
3F
11
11
1F
10
10
FC
ENDCHAR
STARTCHAR ydieresis
ENCODING 255
SWIDTH 655 0
DWIDTH 7 0
BBX 7 12 -1 -5
BITMAP
1C
80
6E
32
62
62
3E
06
06
66
2C
10
ENDCHAR
STARTCHAR dotlessi
ENCODING 305
SWIDTH 393 0
DWIDTH 4 0
BBX 4 5 0 0
BITMAP
E0
20
20
20
F0
ENDCHAR
STARTCHAR Lslash
ENCODING 321
SWIDTH 713 0
DWIDTH 7 0
BBX 8 8 -1 0
BITMAP
FE
10
14
1D
71
11
11
FF
ENDCHAR
STARTCHAR lslash
ENCODING 322
SWIDTH 365 0
DWIDTH 4 0
BBX 5 10 -1 -1
BITMAP
F0
30
30
38
38
70
30
30
30
78
ENDCHAR
STARTCHAR OE
ENCODING 338
SWIDTH 1195 0
DWIDTH 12 0
BBX 12 7 0 0
BITMAP
1FF0
3350
4F50
C7C0
C7D0
4F60
3FE0
ENDCHAR
STARTCHAR oe
ENCODING 339
SWIDTH 1087 0
DWIDTH 11 0
BBX 11 6 0 -1
BITMAP
3000
CFC0
C660
C7E0
7E40
0180
ENDCHAR
STARTCHAR Scaron
ENCODING 352
SWIDTH 661 0
DWIDTH 7 0
BBX 7 11 0 -1
BITMAP
38
10
00
32
CC
C4
F8
1C
86
7C
80
ENDCHAR
STARTCHAR scaron
ENCODING 353
SWIDTH 533 0
DWIDTH 5 0
BBX 5 9 0 0
BITMAP
78
30
00
78
C8
E8
B8
88
F8
ENDCHAR
STARTCHAR Ydieresis
ENCODING 376
SWIDTH 848 0
DWIDTH 8 0
BBX 10 9 -1 -1
BITMAP
0A00
8800
73C0
1900
0E00
0400
0400
0400
1F80
ENDCHAR
STARTCHAR Zcaron
ENCODING 381
SWIDTH 685 0
DWIDTH 7 0
BBX 7 9 0 0
BITMAP
38
10
00
FE
8C
9A
32
72
FE
ENDCHAR
STARTCHAR zcaron
ENCODING 382
SWIDTH 549 0
DWIDTH 6 0
BBX 6 8 0 0
BITMAP
78
30
00
FC
98
B4
68
F8
ENDCHAR
STARTCHAR circumflex
ENCODING 710
SWIDTH 714 0
DWIDTH 7 0
BBX 4 2 2 7
BITMAP
60
F0
ENDCHAR
STARTCHAR caron
ENCODING 711
SWIDTH 714 0
DWIDTH 7 0
BBX 4 2 2 7
BITMAP
F0
60
ENDCHAR
STARTCHAR breve
ENCODING 728
SWIDTH 715 0
DWIDTH 7 0
BBX 4 2 2 7
BITMAP
F0
40
ENDCHAR
STARTCHAR dotaccent
ENCODING 729
SWIDTH 708 0
DWIDTH 7 0
BBX 1 1 3 8
BITMAP
80
ENDCHAR
STARTCHAR ring
ENCODING 730
SWIDTH 704 0
DWIDTH 7 0
BBX 2 2 3 7
BITMAP
C0
C0
ENDCHAR
STARTCHAR ogonek
ENCODING 731
SWIDTH 988 0
DWIDTH 10 0
BBX 4 2 3 -1
BITMAP
80
F0
ENDCHAR
STARTCHAR tilde
ENCODING 732
SWIDTH 707 0
DWIDTH 7 0
BBX 3 2 2 7
BITMAP
E0
A0
ENDCHAR
STARTCHAR hungarumlaut
ENCODING 733
SWIDTH 671 0
DWIDTH 7 0
BBX 4 3 2 7
BITMAP
B0
E0
A0
ENDCHAR
STARTCHAR endash
ENCODING 8211
SWIDTH 576 0
DWIDTH 6 0
BBX 4 1 1 3
BITMAP
F0
ENDCHAR
STARTCHAR emdash
ENCODING 8212
SWIDTH 993 0
DWIDTH 10 0
BBX 8 1 1 3
BITMAP
FF
ENDCHAR
STARTCHAR quoteleft
ENCODING 8216
SWIDTH 261 0
DWIDTH 3 0
BBX 3 3 0 4
BITMAP
60
C0
40
ENDCHAR
STARTCHAR quoteright
ENCODING 8217
SWIDTH 301 0
DWIDTH 3 0
BBX 3 3 0 4
BITMAP
60
40
C0
ENDCHAR
STARTCHAR quotesinglbase
ENCODING 8218
SWIDTH 332 0
DWIDTH 3 0
BBX 3 3 0 -1
BITMAP
60
40
C0
ENDCHAR
STARTCHAR quotedblleft
ENCODING 8220
SWIDTH 477 0
DWIDTH 5 0
BBX 5 3 0 4
BITMAP
78
F0
50
ENDCHAR
STARTCHAR quotedblright
ENCODING 8221
SWIDTH 477 0
DWIDTH 5 0
BBX 5 3 0 4
BITMAP
78
F0
50
ENDCHAR
STARTCHAR quotedblbase
ENCODING 8222
SWIDTH 477 0
DWIDTH 5 0
BBX 5 3 0 -1
BITMAP
78
F0
50
ENDCHAR
STARTCHAR dagger
ENCODING 8224
SWIDTH 487 0
DWIDTH 5 0
BBX 5 11 0 -3
BITMAP
20
20
F8
E0
20
20
20
20
20
20
20
ENDCHAR
STARTCHAR daggerdbl
ENCODING 8225
SWIDTH 497 0
DWIDTH 5 0
BBX 5 11 0 -3
BITMAP
20
20
F8
E0
38
F8
20
20
20
20
20
ENDCHAR
STARTCHAR bullet
ENCODING 8226
SWIDTH 275 0
DWIDTH 3 0
BBX 3 3 0 2
BITMAP
E0
E0
40
ENDCHAR
STARTCHAR ellipsis
ENCODING 8230
SWIDTH 787 0
DWIDTH 8 0
BBX 8 2 0 -1
BITMAP
DB
DB
ENDCHAR
STARTCHAR perthousand
ENCODING 8240
SWIDTH 888 0
DWIDTH 9 0
BBX 9 8 0 0
BITMAP
0C00
E800
F800
1000
1000
3500
2A80
6D80
ENDCHAR
STARTCHAR guilsinglleft
ENCODING 8249
SWIDTH 234 0
DWIDTH 2 0
BBX 2 5 0 0
BITMAP
40
40
80
40
40
ENDCHAR
STARTCHAR guilsinglright
ENCODING 8250
SWIDTH 223 0
DWIDTH 2 0
BBX 2 5 0 0
BITMAP
80
C0
40
40
80
ENDCHAR
STARTCHAR fraction
ENCODING 8260
SWIDTH 600 0
DWIDTH 6 0
BBX 6 9 0 -1
BITMAP
0C
0C
18
18
30
60
60
C0
80
ENDCHAR
STARTCHAR Euro
ENCODING 8364
SWIDTH 590 0
DWIDTH 6 0
BBX 6 7 0 0
BITMAP
10
6C
4C
F0
F4
7C
10
ENDCHAR
STARTCHAR trademark
ENCODING 8482
SWIDTH 624 0
DWIDTH 6 0
BBX 7 4 0 3
BITMAP
80
D0
AC
FE
ENDCHAR
STARTCHAR minus
ENCODING 8722
SWIDTH 549 0
DWIDTH 6 0
BBX 5 1 0 3
BITMAP
F8
ENDCHAR
STARTCHAR fi
ENCODING 64257
SWIDTH 757 0
DWIDTH 8 0
BBX 9 14 -1 -4
BITMAP
0C00
1200
1300
3300
3000
7F00
1300
1300
1300
1F80
1800
5800
D800
7000
ENDCHAR
STARTCHAR fl
ENCODING 64258
SWIDTH 776 0
DWIDTH 8 0
BBX 9 14 -1 -4
BITMAP
0C00
1200
1300
3300
3300
7F00
1300
1300
1100
1900
1F80
5800
D800
7000
ENDCHAR
STARTCHAR .notdef
ENCODING -1
SWIDTH 320 0
DWIDTH 3 0
BBX 1 1 0 0
BITMAP
00
ENDCHAR
ENDFONT
